<?xml version="1.0" encoding="iso-8859-1"?>
<!-- Uploaded to: SVG Repo, www.svgrepo.com, Generator: SVG Repo Mixer Tools -->
<svg height="800px" width="800px" version="1.1" id="Layer_1" xmlns="http://www.w3.org/2000/svg" xmlns:xlink="http://www.w3.org/1999/xlink" 
	 viewBox="0 0 511.147 511.147" xml:space="preserve">
<g transform="translate(1 1)">
	<g>
		<path style="fill:#FFE100;" d="M161.133,297.279L161.133,297.279c-9.387,0-17.067-7.68-17.067-17.067v-51.2
			c0-9.387,7.68-17.067,17.067-17.067s17.067,7.68,17.067,17.067v51.2C178.2,289.599,170.52,297.279,161.133,297.279"/>
		<path style="fill:#FFE100;" d="M92.867,297.279L92.867,297.279c-9.387,0-17.067-7.68-17.067-17.067v-51.2
			c0-9.387,7.68-17.067,17.067-17.067s17.067,7.68,17.067,17.067v51.2C109.933,289.599,102.253,297.279,92.867,297.279"/>
		<polygon style="fill:#FFE100;" points="212.333,297.279 212.333,297.279 314.733,297.279 314.733,391.145 468.333,254.612 
			314.733,118.078 314.733,211.945 212.333,211.945 		"/>
	</g>
	<polygon style="fill:#FFA800;" points="314.733,391.145 502.467,254.612 314.733,118.078 468.333,254.612 	"/>
	<path style="fill:#FFFFFF;" d="M24.6,297.279L24.6,297.279c-9.387,0-17.067-7.68-17.067-17.067v-51.2
		c0-9.387,7.68-17.067,17.067-17.067s17.067,7.68,17.067,17.067v51.2C41.667,289.599,33.987,297.279,24.6,297.279"/>
	<path style="fill:#FFE100;" d="M41.667,297.279L41.667,297.279c-9.387,0-17.067-7.68-17.067-17.067v-51.2
		c0-9.387,7.68-17.067,17.067-17.067"/>
	<path d="M161.133,305.812c-14.507,0-25.6-11.093-25.6-25.6v-51.2c0-14.507,11.093-25.6,25.6-25.6c14.507,0,25.6,11.093,25.6,25.6
		v51.2C186.733,294.719,175.64,305.812,161.133,305.812z M161.133,220.478c-5.12,0-8.533,3.413-8.533,8.533v51.2
		c0,5.12,3.413,8.533,8.533,8.533c5.12,0,8.533-3.413,8.533-8.533v-51.2C169.667,223.892,166.253,220.478,161.133,220.478z"/>
	<path d="M92.867,305.812c-14.507,0-25.6-11.093-25.6-25.6v-51.2c0-14.507,11.093-25.6,25.6-25.6s25.6,11.093,25.6,25.6v51.2
		C118.467,294.719,107.373,305.812,92.867,305.812z M92.867,220.478c-5.12,0-8.533,3.413-8.533,8.533v51.2
		c0,5.12,3.413,8.533,8.533,8.533s8.533-3.413,8.533-8.533v-51.2C101.4,223.892,97.987,220.478,92.867,220.478z"/>
	<path d="M24.6,305.812c-14.507,0-25.6-11.093-25.6-25.6v-51.2c0-14.507,11.093-25.6,25.6-25.6s25.6,11.093,25.6,25.6v51.2
		C50.2,294.719,39.107,305.812,24.6,305.812z M24.6,220.478c-5.12,0-8.533,3.413-8.533,8.533v51.2c0,5.12,3.413,8.533,8.533,8.533
		s8.533-3.413,8.533-8.533v-51.2C33.133,223.892,29.72,220.478,24.6,220.478z"/>
	<path d="M314.733,399.678c-1.707,0-2.56,0-4.267-0.853c-2.56-1.707-4.267-4.267-4.267-7.68v-85.333h-93.867
		c-5.12,0-8.533-3.413-8.533-8.533v-85.333c0-5.12,3.413-8.533,8.533-8.533H306.2v-85.333c0-3.413,1.707-5.973,4.267-7.68
		s5.973-0.853,8.533,0.853l187.733,136.533c2.56,1.707,3.413,4.267,3.413,6.827c0,2.56-1.707,5.12-3.413,6.827l-68.267,49.493
		c-3.413,2.56-9.387,1.707-11.947-1.707c-1.707-3.413-0.853-9.387,2.56-11.947l58.88-42.667L323.267,135.145v76.8
		c0,5.12-3.413,8.533-8.533,8.533h-93.867v68.267h93.867c5.12,0,8.533,3.413,8.533,8.533v76.8l57.173-40.96
		c3.413-2.56,9.387-1.707,11.947,1.707c2.56,3.413,1.707,9.387-1.707,11.947l-69.973,51.2
		C318.147,398.825,316.44,399.678,314.733,399.678z"/>
	<path d="M411.16,313.492c-5.12,0-8.533,3.413-8.533,8.533c0,5.12,3.413,8.533,8.533,8.533c5.12,0,8.533-3.413,8.533-8.533
		C419.693,316.905,416.28,313.492,411.16,313.492"/>
</g>
</svg>